<mxfile host="app.diagrams.net" modified="2023-07-11T19:46:50.943Z" agent="Mozilla/5.0 (Windows NT 10.0; Win64; x64) AppleWebKit/537.36 (KHTML, like Gecko) Chrome/114.0.0.0 Safari/537.36" version="21.6.2" etag="pckmkmzLHes7MMhbq-Xq" type="github">
  <diagram name="‫עמוד-1‬" id="4xv6dx_i_Opqh94yAMII">
    <mxGraphModel>
      <root>
        <mxCell id="0" />
        <mxCell id="1" parent="0" />
      </root>
    </mxGraphModel>
  </diagram>
</mxfile>
